<svg width="1060" height="313" viewBox="0 0 1060 313" fill="none" xmlns="http://www.w3.org/2000/svg">
<path d="M423.52 142H387.88V3.40004H497.77V31.1201H423.52V63.7901H481.93V91.51H423.52V142Z" fill="black"/>
<path d="M600.73 41.02C600.73 33.1 596.77 29.14 588.85 29.14H555.19C547.27 29.14 543.31 33.1 543.31 41.02V104.38C543.31 112.3 547.27 116.26 555.19 116.26H588.85C596.77 116.26 600.73 112.3 600.73 104.38V41.02ZM636.37 104.38C636.37 118.24 633.202 128.338 626.866 134.674C620.662 140.878 610.63 143.98 596.77 143.98H547.27C533.41 143.98 523.312 140.878 516.976 134.674C510.772 128.338 507.67 118.24 507.67 104.38V41.02C507.67 27.16 510.772 17.128 516.976 10.924C523.312 4.58804 533.41 1.42004 547.27 1.42004H596.77C610.63 1.42004 620.662 4.58804 626.866 10.924C633.202 17.128 636.37 27.16 636.37 41.02V104.38Z" fill="black"/>
<path d="M745.363 41.02C745.363 33.1 741.403 29.14 733.483 29.14H699.823C691.903 29.14 687.943 33.1 687.943 41.02V104.38C687.943 112.3 691.903 116.26 699.823 116.26H733.483C741.403 116.26 745.363 112.3 745.363 104.38V41.02ZM781.003 104.38C781.003 118.24 777.835 128.338 771.499 134.674C765.295 140.878 755.263 143.98 741.403 143.98H691.903C678.043 143.98 667.945 140.878 661.609 134.674C655.405 128.338 652.303 118.24 652.303 104.38V41.02C652.303 27.16 655.405 17.128 661.609 10.924C667.945 4.58804 678.043 1.42004 691.903 1.42004H741.403C755.263 1.42004 765.295 4.58804 771.499 10.924C777.835 17.128 781.003 27.16 781.003 41.02V104.38Z" fill="black"/>
<path d="M878.116 3.40004C893.032 3.40004 904.318 7.29404 911.974 15.082C919.762 22.738 923.656 34.0241 923.656 48.94V96.4601C923.656 111.376 919.762 122.728 911.974 130.516C904.318 138.172 893.032 142 878.116 142H800.896V3.40004H878.116ZM888.016 48.94C888.016 37.0601 882.075 31.1201 870.195 31.1201H836.535V114.28H870.195C882.075 114.28 888.016 108.34 888.016 96.4601V48.94Z" fill="black"/>
<path d="M506.68 233.78L478.96 283.28H451.24L423.52 233.78V311H387.88V172.4H425.5L465.1 245.66L504.7 172.4H542.32V311H506.68V233.78Z" fill="black"/>
<path d="M590.907 311H552.297L604.767 172.4H644.367L696.837 311H658.227L649.317 286.25H599.817L590.907 311ZM608.727 260.51H640.407L624.567 213.98L608.727 260.51Z" fill="black"/>
<path d="M760.128 311H724.488V200.12H682.908V172.4H801.708V200.12H760.128V311Z" fill="black"/>
<path d="M922.511 309.02C893.075 311.66 868.655 312.98 849.251 312.98C836.315 312.98 826.811 309.944 820.739 303.872C814.667 297.8 811.631 288.296 811.631 275.36V212C811.631 198.14 814.733 188.108 820.937 181.904C827.273 175.568 837.371 172.4 851.231 172.4H922.511V200.12H859.151C851.231 200.12 847.271 204.08 847.271 212V275.36C847.271 278.396 848.129 280.838 849.845 282.686C851.693 284.402 854.003 285.26 856.775 285.26C859.547 285.26 862.583 285.26 865.883 285.26C869.183 285.128 872.615 284.996 876.179 284.864C879.743 284.732 883.307 284.6 886.871 284.468C890.567 284.336 895.253 284.072 900.929 283.676C906.737 283.28 913.931 282.818 922.511 282.29V309.02Z" fill="black"/>
<path d="M1059.15 311H1023.51V254.57H974.014V311H938.374V172.4H974.014V226.85H1023.51V172.4H1059.15V311Z" fill="black"/>
<path fill-rule="evenodd" clip-rule="evenodd" d="M139 0V97.8244H116.86H80V233.624H114.92V136.964H138.08V233.624H173.24V136.964H196.4V233.624H231.32V97.8244H194.46H173V0C251.16 8.47054 312 74.6724 312 155.084C312 241.241 242.156 311.084 156 311.084C69.8436 311.084 0 241.241 0 155.084C0 74.6724 60.8404 8.47054 139 0Z" fill="black"/>
</svg>
